%TF.GenerationSoftware,KiCad,Pcbnew,9.0.7*%
%TF.CreationDate,2026-02-11T18:54:05-08:00*%
%TF.ProjectId,gbsc-vgaswitch,67627363-2d76-4676-9173-77697463682e,rev?*%
%TF.SameCoordinates,Original*%
%TF.FileFunction,Legend,Top*%
%TF.FilePolarity,Positive*%
%FSLAX46Y46*%
G04 Gerber Fmt 4.6, Leading zero omitted, Abs format (unit mm)*
G04 Created by KiCad (PCBNEW 9.0.7) date 2026-02-11 18:54:05*
%MOMM*%
%LPD*%
G01*
G04 APERTURE LIST*
%ADD10C,0.100000*%
%ADD11C,0.120000*%
G04 APERTURE END LIST*
D10*
X133758646Y-98156895D02*
X133911027Y-98156895D01*
X133911027Y-98156895D02*
X133987217Y-98194990D01*
X133987217Y-98194990D02*
X134063408Y-98271180D01*
X134063408Y-98271180D02*
X134101503Y-98423561D01*
X134101503Y-98423561D02*
X134101503Y-98690228D01*
X134101503Y-98690228D02*
X134063408Y-98842609D01*
X134063408Y-98842609D02*
X133987217Y-98918800D01*
X133987217Y-98918800D02*
X133911027Y-98956895D01*
X133911027Y-98956895D02*
X133758646Y-98956895D01*
X133758646Y-98956895D02*
X133682455Y-98918800D01*
X133682455Y-98918800D02*
X133606265Y-98842609D01*
X133606265Y-98842609D02*
X133568169Y-98690228D01*
X133568169Y-98690228D02*
X133568169Y-98423561D01*
X133568169Y-98423561D02*
X133606265Y-98271180D01*
X133606265Y-98271180D02*
X133682455Y-98194990D01*
X133682455Y-98194990D02*
X133758646Y-98156895D01*
X134711026Y-98537847D02*
X134444360Y-98537847D01*
X134444360Y-98956895D02*
X134444360Y-98156895D01*
X134444360Y-98156895D02*
X134825312Y-98156895D01*
X135396740Y-98537847D02*
X135130074Y-98537847D01*
X135130074Y-98956895D02*
X135130074Y-98156895D01*
X135130074Y-98156895D02*
X135511026Y-98156895D01*
X137034836Y-98423561D02*
X136425312Y-98652133D01*
X136425312Y-98652133D02*
X137034836Y-98880704D01*
X137415788Y-98652133D02*
X138025312Y-98652133D01*
X138406264Y-98423561D02*
X139015788Y-98652133D01*
X139015788Y-98652133D02*
X138406264Y-98880704D01*
X140158645Y-98156895D02*
X140311026Y-98156895D01*
X140311026Y-98156895D02*
X140387216Y-98194990D01*
X140387216Y-98194990D02*
X140463407Y-98271180D01*
X140463407Y-98271180D02*
X140501502Y-98423561D01*
X140501502Y-98423561D02*
X140501502Y-98690228D01*
X140501502Y-98690228D02*
X140463407Y-98842609D01*
X140463407Y-98842609D02*
X140387216Y-98918800D01*
X140387216Y-98918800D02*
X140311026Y-98956895D01*
X140311026Y-98956895D02*
X140158645Y-98956895D01*
X140158645Y-98956895D02*
X140082454Y-98918800D01*
X140082454Y-98918800D02*
X140006264Y-98842609D01*
X140006264Y-98842609D02*
X139968168Y-98690228D01*
X139968168Y-98690228D02*
X139968168Y-98423561D01*
X139968168Y-98423561D02*
X140006264Y-98271180D01*
X140006264Y-98271180D02*
X140082454Y-98194990D01*
X140082454Y-98194990D02*
X140158645Y-98156895D01*
X140844359Y-98956895D02*
X140844359Y-98156895D01*
X140844359Y-98156895D02*
X141301502Y-98956895D01*
X141301502Y-98956895D02*
X141301502Y-98156895D01*
D11*
%TO.C,SW1*%
X133350000Y-99450000D02*
X141950000Y-99450000D01*
X133350000Y-104050000D02*
X135550000Y-104050000D01*
X139650000Y-104050000D02*
X141950000Y-104050000D01*
%TO.C,J1*%
X141040000Y-89732000D02*
X143440000Y-89732000D01*
X141040000Y-92132000D02*
X141040000Y-89732000D01*
X143440000Y-89732000D02*
X143440000Y-92132000D01*
X143440000Y-92132000D02*
X141040000Y-92132000D01*
%TO.C,J2*%
X131896000Y-89732000D02*
X134296000Y-89732000D01*
X131896000Y-92132000D02*
X131896000Y-89732000D01*
X134296000Y-89732000D02*
X134296000Y-92132000D01*
X134296000Y-92132000D02*
X131896000Y-92132000D01*
%TO.C,R1*%
X132615000Y-95403936D02*
X132615000Y-95858064D01*
X134085000Y-95403936D02*
X134085000Y-95858064D01*
%TD*%
M02*
