%TF.GenerationSoftware,KiCad,Pcbnew,7.0.6*%
%TF.CreationDate,2023-08-01T21:42:18-07:00*%
%TF.ProjectId,gbsc-vgaswitch-throughhole,67627363-2d76-4676-9173-77697463682d,rev?*%
%TF.SameCoordinates,Original*%
%TF.FileFunction,Legend,Top*%
%TF.FilePolarity,Positive*%
%FSLAX46Y46*%
G04 Gerber Fmt 4.6, Leading zero omitted, Abs format (unit mm)*
G04 Created by KiCad (PCBNEW 7.0.6) date 2023-08-01 21:42:18*
%MOMM*%
%LPD*%
G01*
G04 APERTURE LIST*
%ADD10C,0.100000*%
%ADD11C,0.120000*%
%ADD12C,0.150000*%
G04 APERTURE END LIST*
D10*
X133758646Y-98156895D02*
X133911027Y-98156895D01*
X133911027Y-98156895D02*
X133987217Y-98194990D01*
X133987217Y-98194990D02*
X134063408Y-98271180D01*
X134063408Y-98271180D02*
X134101503Y-98423561D01*
X134101503Y-98423561D02*
X134101503Y-98690228D01*
X134101503Y-98690228D02*
X134063408Y-98842609D01*
X134063408Y-98842609D02*
X133987217Y-98918800D01*
X133987217Y-98918800D02*
X133911027Y-98956895D01*
X133911027Y-98956895D02*
X133758646Y-98956895D01*
X133758646Y-98956895D02*
X133682455Y-98918800D01*
X133682455Y-98918800D02*
X133606265Y-98842609D01*
X133606265Y-98842609D02*
X133568169Y-98690228D01*
X133568169Y-98690228D02*
X133568169Y-98423561D01*
X133568169Y-98423561D02*
X133606265Y-98271180D01*
X133606265Y-98271180D02*
X133682455Y-98194990D01*
X133682455Y-98194990D02*
X133758646Y-98156895D01*
X134711026Y-98537847D02*
X134444360Y-98537847D01*
X134444360Y-98956895D02*
X134444360Y-98156895D01*
X134444360Y-98156895D02*
X134825312Y-98156895D01*
X135396740Y-98537847D02*
X135130074Y-98537847D01*
X135130074Y-98956895D02*
X135130074Y-98156895D01*
X135130074Y-98156895D02*
X135511026Y-98156895D01*
X137034836Y-98423561D02*
X136425312Y-98652133D01*
X136425312Y-98652133D02*
X137034836Y-98880704D01*
X137415788Y-98652133D02*
X138025312Y-98652133D01*
X138406264Y-98423561D02*
X139015788Y-98652133D01*
X139015788Y-98652133D02*
X138406264Y-98880704D01*
X140158645Y-98156895D02*
X140311026Y-98156895D01*
X140311026Y-98156895D02*
X140387216Y-98194990D01*
X140387216Y-98194990D02*
X140463407Y-98271180D01*
X140463407Y-98271180D02*
X140501502Y-98423561D01*
X140501502Y-98423561D02*
X140501502Y-98690228D01*
X140501502Y-98690228D02*
X140463407Y-98842609D01*
X140463407Y-98842609D02*
X140387216Y-98918800D01*
X140387216Y-98918800D02*
X140311026Y-98956895D01*
X140311026Y-98956895D02*
X140158645Y-98956895D01*
X140158645Y-98956895D02*
X140082454Y-98918800D01*
X140082454Y-98918800D02*
X140006264Y-98842609D01*
X140006264Y-98842609D02*
X139968168Y-98690228D01*
X139968168Y-98690228D02*
X139968168Y-98423561D01*
X139968168Y-98423561D02*
X140006264Y-98271180D01*
X140006264Y-98271180D02*
X140082454Y-98194990D01*
X140082454Y-98194990D02*
X140158645Y-98156895D01*
X140844359Y-98956895D02*
X140844359Y-98156895D01*
X140844359Y-98156895D02*
X141301502Y-98956895D01*
X141301502Y-98956895D02*
X141301502Y-98156895D01*
D11*
%TO.C,J2*%
X131896000Y-89732000D02*
X134296000Y-89732000D01*
X131896000Y-92132000D02*
X131896000Y-89732000D01*
X134296000Y-89732000D02*
X134296000Y-92132000D01*
X134296000Y-92132000D02*
X131896000Y-92132000D01*
D12*
%TO.C,SW1*%
X133368000Y-99300000D02*
X141968000Y-99300000D01*
X133368000Y-103900000D02*
X135568000Y-103900000D01*
X139668000Y-103900000D02*
X141968000Y-103900000D01*
D11*
%TO.C,J1*%
X141040000Y-89732000D02*
X143440000Y-89732000D01*
X141040000Y-92132000D02*
X141040000Y-89732000D01*
X143440000Y-89732000D02*
X143440000Y-92132000D01*
X143440000Y-92132000D02*
X141040000Y-92132000D01*
%TO.C,R1*%
X140938000Y-97890000D02*
X134398000Y-97890000D01*
X140938000Y-97560000D02*
X140938000Y-97890000D01*
X140938000Y-95480000D02*
X140938000Y-95150000D01*
X140938000Y-95150000D02*
X134398000Y-95150000D01*
X134398000Y-97890000D02*
X134398000Y-97560000D01*
X134398000Y-95150000D02*
X134398000Y-95480000D01*
%TD*%
M02*
